<?xml version="1.0" encoding="UTF-8"?>
<!DOCTYPE svg PUBLIC "-//W3C//DTD SVG 1.1//EN" "http://www.w3.org/Graphics/SVG/1.1/DTD/svg11.dtd">
<!-- Creator: CorelDRAW X7 -->
<svg xmlns="http://www.w3.org/2000/svg" xml:space="preserve" width="1982px" height="433px" version="1.1" style="shape-rendering:geometricPrecision; text-rendering:geometricPrecision; image-rendering:optimizeQuality; fill-rule:evenodd; clip-rule:evenodd"
viewBox="0 0 1651 361"
 xmlns:xlink="http://www.w3.org/1999/xlink">
 <defs>
  <style type="text/css">
   <![CDATA[
    .fil0 {fill:black;fill-rule:nonzero}
    .fil1 {fill:#DC382D;fill-rule:nonzero}
   ]]>
  </style>
 </defs>
 <g id="Слой_x0020_1">
  <metadata id="CorelCorpID_0Corel-Layer"/>
  <path class="fil0" d="M215 115c24,-2 47,-4 71,-6 11,-1 24,-1 35,-2l36 -1 35 0c3,0 6,0 8,0 3,0 6,-1 9,-1 5,-2 9,-4 13,-8 4,-3 8,-7 11,-13 1,-2 2,-5 3,-7l2 -9c3,-11 6,-22 10,-34 -2,12 -4,23 -5,36l-2 8c0,1 -1,3 -1,4 0,2 -1,3 -1,6 -3,5 -6,11 -12,15 -2,2 -4,4 -7,6 -3,2 -6,4 -9,5 -3,1 -7,1 -10,2 -3,0 -6,0 -9,0l-35 1 -36 1c-11,-1 -23,0 -35,-1 -24,0 -47,0 -71,-2l0 0z"/>
  <path class="fil0" d="M72 155c39,-3 78,-4 118,-5 18,-1 38,-1 58,-2l58 -1 15 0 7 0 2 0 2 0 1 0c2,0 4,1 5,1 6,3 10,10 10,18 -1,1 -1,3 -2,4 0,2 -1,3 -2,4 -2,3 -4,5 -6,6 -3,2 -6,3 -9,3 -2,2 -4,3 -6,4 -4,1 -8,3 -11,6 -2,1 -4,3 -6,4l-1 1c0,1 -1,2 -2,2 -1,1 -2,2 -3,3 -5,2 -10,3 -15,4 -10,3 -20,3 -30,3 -5,0 -10,0 -15,0l-8 0c-1,-2 -2,-2 -3,-2 -1,2 -2,2 -3,2 -2,1 -3,2 -5,3 -1,2 -2,3 -3,6 -2,4 -3,8 -5,13 -2,10 -5,19 -6,29 0,-10 1,-20 4,-30 1,-5 2,-9 4,-14 0,-2 1,-5 3,-7 2,-3 4,-4 7,-5 1,-1 2,-1 4,-1 1,-1 2,-1 3,-1l8 0c5,0 10,0 14,0 11,0 20,-1 30,-3 4,-1 9,-2 12,-4 0,-1 1,-1 2,-2 0,0 0,0 1,-1l1 -1c2,-2 3,-4 5,-6 5,-4 10,-6 14,-8 3,-2 5,-2 7,-3 3,-1 4,-2 7,-3 1,-1 3,-2 4,-3 0,-1 1,-2 1,-2 0,-1 0,-2 0,-2 1,-3 -1,-7 -4,-8 0,0 -1,0 -1,0l-1 0 -2 0 -2 0 -7 0 -15 0 -58 0c-20,0 -40,0 -58,0 -40,0 -78,-1 -118,-2l0 0z"/>
  <path class="fil0" d="M33 211c3,0 7,0 9,1l4 0c2,0 3,0 5,0 3,1 5,4 7,7 0,1 1,3 1,4 0,2 0,3 0,4 0,7 0,12 0,17 -1,5 -1,11 -2,17 -1,-6 -2,-12 -2,-17 0,-5 -1,-10 -1,-17 0,-1 0,-3 0,-3 0,-1 0,-2 0,-3 -1,-2 -3,-4 -5,-5 -1,-1 -2,-1 -3,-1l-4 -1c-3,-1 -6,-2 -9,-3l0 0z"/>
  <path class="fil0" d="M82 173c25,-2 50,-3 75,-3 25,0 50,1 75,3 -25,1 -50,2 -75,2 -25,0 -50,-1 -75,-2z"/>
  <path class="fil1" d="M652 146c-82,0 -178,0 -274,2l0 2c96,1 192,1 274,1 81,0 177,0 273,-1l0 -2c-96,-2 -192,-2 -273,-2z"/>
  <path class="fil0" d="M82 190c24,-2 48,-3 72,-3 25,0 49,1 73,3 -24,2 -48,2 -73,2 -24,0 -48,0 -72,-2z"/>
  <path class="fil0" d="M240 74c2,-5 6,-11 11,-16 4,-4 11,-8 16,-11 6,-3 12,-5 19,-6 3,-1 7,-1 10,-1 3,0 6,0 9,0 -3,1 -6,2 -9,3 -2,1 -5,2 -8,3 -7,2 -12,5 -17,7 -6,3 -11,6 -17,10 -4,4 -9,7 -14,11z"/>
  <path class="fil0" d="M76 259c9,-2 19,-3 28,-3 10,-1 18,-1 27,-1 10,0 19,0 29,1 9,0 18,1 27,3 -9,2 -18,3 -27,3 -10,0 -19,1 -29,1 -9,0 -17,-1 -27,-1 -9,-1 -19,-1 -28,-3z"/>
  <path class="fil0" d="M412 221c14,5 27,16 34,30 7,14 9,30 6,46 0,8 -2,16 -6,23 -3,7 -7,15 -13,21 -7,5 -13,9 -21,12 -3,2 -8,4 -12,4 -4,1 -7,2 -12,2l1 0c-4,0 -7,0 -12,-1 -3,0 -6,-1 -10,-3 -6,-1 -14,-4 -19,-8 -6,-3 -11,-8 -15,-13 -5,-7 -8,-12 -11,-19 4,6 8,11 13,17 5,4 10,8 15,11 7,2 13,4 19,6 6,1 13,1 19,0l0 0c7,0 14,-2 21,-4 6,-3 12,-7 16,-11 6,-6 10,-11 13,-18 3,-6 5,-13 6,-20 2,-15 1,-29 -4,-43 -5,-13 -16,-25 -28,-32l0 0z"/>
  <path class="fil0" d="M403 241c11,3 19,10 24,21 6,10 7,22 6,32 -2,11 -7,23 -15,30 -9,8 -21,12 -31,11 10,-2 21,-7 27,-15 3,-3 6,-7 8,-12 1,-3 1,-5 2,-7 1,-3 1,-5 2,-7 1,-10 0,-21 -3,-30 -4,-10 -10,-18 -20,-23l0 0z"/>
  <path class="fil0" d="M524 46c4,6 6,11 8,18 2,5 4,11 5,17 2,7 3,12 4,18 1,6 2,13 3,19 -3,-5 -5,-12 -7,-18 -2,-5 -4,-11 -6,-17 -1,-6 -3,-12 -5,-18 -1,-7 -2,-12 -2,-19z"/>
  <path class="fil0" d="M592 52c3,5 5,11 7,15 3,5 4,10 6,15 1,6 3,12 4,17 1,5 3,10 3,16 -2,-4 -4,-10 -6,-15 -2,-5 -4,-10 -7,-16 -1,-5 -3,-10 -4,-15 -1,-6 -2,-12 -3,-17z"/>
  <path class="fil0" d="M586 88c3,3 4,7 6,10 2,3 3,6 4,10l1 4 -3 0c-3,0 -5,1 -8,1 -3,0 -6,0 -10,0 3,-2 6,-4 9,-4 3,-1 6,-2 9,-3l-2 3c-2,-3 -3,-6 -4,-10 -1,-3 -1,-7 -2,-11l0 0z"/>
  <path class="fil0" d="M455 79c0,4 0,9 0,13 0,2 0,4 0,6 -2,2 -2,4 -2,6l-2 -2c5,0 10,0 14,0 5,1 9,1 15,2 -6,1 -10,2 -15,2 -4,0 -9,1 -14,1l-3 0 0 -3c1,-2 1,-4 1,-6 1,-2 1,-4 1,-6 1,-4 2,-9 5,-13l0 0z"/>
  <path class="fil0" d="M459 21c10,-10 23,-13 35,-13 6,0 13,1 19,2l18 5c11,3 24,6 35,9 12,2 24,5 36,6 -12,0 -24,-3 -36,-5 -12,-2 -24,-4 -36,-6l-18 -4c-6,-1 -12,-2 -18,-2 -5,1 -11,2 -17,4 -5,2 -10,5 -13,9l-5 -5 0 0z"/>
  <path class="fil0" d="M43 320c10,9 22,16 33,21 13,5 26,8 39,8 7,0 12,0 18,-2 7,-1 12,-4 18,-8 11,-6 20,-17 29,-27 -5,12 -13,25 -25,34 -3,2 -5,4 -8,6l-5 2 -5 3c-8,2 -16,3 -22,2 -8,0 -15,-1 -22,-2 -6,-3 -14,-5 -20,-9 -13,-6 -23,-16 -30,-28l0 0z"/>
  <path class="fil0" d="M85 312c9,7 19,10 30,11l4 0c1,0 2,0 3,0 3,0 5,-1 8,-2 2,0 6,-1 9,-1 2,-1 5,-2 7,-3 -2,2 -4,4 -6,5 -3,1 -6,3 -9,4 -5,2 -11,3 -16,3 -7,-1 -13,-2 -18,-5 -5,-3 -9,-7 -12,-12l0 0z"/>
  <path class="fil0" d="M306 24c4,-6 9,-11 14,-16 5,-4 12,-7 19,-8 2,0 3,0 5,0 2,0 3,0 5,0l10 1 19 1 78 5 -79 -2 -18 0 -11 0c-1,0 -3,0 -4,0 -2,0 -3,0 -4,0 -13,2 -22,12 -27,22l-7 -3 0 0z"/>
  <path class="fil1" d="M584 340c2,2 5,3 9,4l1 1 -3 13c-2,0 -5,0 -10,0 -5,-1 -10,-1 -15,-1 -7,0 -15,1 -21,1 -7,1 -11,1 -13,1l-1 -2 2 -12c7,-1 11,-2 13,-3 3,-1 4,-3 4,-6 0,-1 0,-2 -1,-3 0,-1 0,-3 0,-4l-2 -17 -18 0c-3,0 -9,1 -20,2l-8 16c-1,4 -2,7 -2,8 0,2 1,4 2,5 1,1 4,1 7,1l9 0 1 1 -3 14c-2,-1 -6,-1 -13,-1 -6,-1 -11,-1 -17,-1 -5,0 -11,0 -16,1 -4,0 -7,0 -9,0l3 -14c4,-1 6,-2 9,-4 2,-2 4,-5 7,-11l50 -108 32 -3 2 1c1,7 3,24 6,49 4,25 7,46 11,61 0,6 2,9 4,11zm-53 -44l0 0c4,0 9,0 15,-1l-6 -48 -3 0 -21 49 15 0z"/>
  <path class="fil1" d="M594 237c-2,-2 -5,-3 -9,-3l0 -3 3 -12c1,0 5,1 10,1 5,0 10,0 15,0 6,0 14,0 21,-1 7,0 11,-1 13,-1l1 2 -2 12c-5,0 -9,2 -11,2 -2,1 -4,2 -4,3 -1,1 -2,3 -2,5 0,6 1,20 4,43 2,21 4,37 4,44l3 0c8,-17 17,-36 25,-56 8,-20 13,-31 13,-34 0,-2 -1,-3 -2,-4 -3,-1 -5,-3 -8,-3l-8 0 -1 -1 3 -12c2,0 6,0 12,0 7,1 13,1 18,1 6,0 12,0 16,0 4,0 7,-1 8,-1l-3 13c-3,2 -5,3 -7,4 -1,2 -3,4 -5,8l-50 111 -35 5c-1,-8 -3,-24 -7,-49 -3,-26 -7,-47 -11,-65 0,-4 -2,-7 -4,-9l0 0z"/>
  <path class="fil1" d="M750 238c-4,1 -7,4 -8,7 -2,3 -3,9 -5,19l-18 1c1,-3 2,-10 3,-18 3,-9 4,-19 6,-27l2 -2 20 2 64 0 21 -2 2 2c-1,8 -1,18 -2,26 0,9 -1,15 -1,18l-17 1c0,-10 0,-17 -1,-20 -1,-3 -2,-6 -5,-7 -3,-1 -8,-2 -16,-2 -2,11 -5,29 -8,54 -4,25 -5,38 -5,43 0,4 0,6 2,8 1,1 4,2 7,2 3,0 5,0 8,0 2,0 3,0 4,0l0 1 -3 14c-4,0 -9,0 -15,0 -7,-1 -15,-1 -21,-1 -5,0 -11,0 -19,1 -8,0 -13,0 -15,1l3 -14c6,-1 10,-2 13,-3 4,-1 6,-3 7,-6 1,-3 2,-8 3,-14l10 -86c-7,0 -13,1 -16,2l0 0z"/>
  <path class="fil1" d="M866 352c-8,-5 -15,-11 -19,-19 -5,-9 -7,-19 -7,-31 0,-16 2,-31 9,-43 6,-14 15,-23 26,-31 11,-7 25,-10 39,-10 11,0 21,2 29,6 9,4 15,12 20,20 4,8 7,19 7,30 0,17 -4,31 -10,44 -6,14 -14,23 -26,30 -11,7 -25,12 -40,12 -10,0 -19,-2 -28,-8l0 0zm61 -27l0 0c7,-11 10,-27 10,-48 0,-12 -2,-22 -7,-29 -5,-7 -13,-11 -21,-11 -8,0 -15,3 -20,8 -6,4 -10,12 -13,22 -3,9 -4,21 -4,34 0,13 2,23 7,29 5,8 11,12 21,12 11,0 21,-6 27,-17l0 0z"/>
  <path class="fil1" d="M1050 334c0,2 0,4 1,5 1,2 3,2 6,2 2,0 5,0 7,0 4,-1 6,-1 7,-1l1 2 -3 16c-4,0 -8,0 -14,0 -6,-1 -13,-1 -19,-1 -6,0 -13,1 -20,1 -7,1 -11,1 -13,2l3 -15c6,-1 10,-2 13,-5 2,-2 4,-7 5,-14l10 -81 0 -5c0,-3 0,-4 -1,-5 -1,-1 -3,-1 -5,-1 -1,0 -2,0 -3,0 -1,0 -2,0 -3,0l-1 -3 3 -12c3,0 7,1 14,1 8,0 15,0 23,0 27,0 47,-1 59,-2l1 2c0,2 -2,6 -3,15 -3,7 -5,15 -6,24l-18 1c0,-1 1,-4 1,-6 1,-3 1,-5 1,-7 0,-3 -1,-5 -2,-6 -1,-2 -4,-3 -7,-3 -3,-1 -7,-1 -12,-1 -3,0 -6,0 -7,1 -3,0 -4,0 -4,1 -1,1 -1,3 -2,5l-5 37 19 2c3,0 6,-2 11,-2 6,-1 9,-1 11,-1l1 3 -4 17c-2,-1 -6,-1 -11,-1 -4,0 -9,0 -14,0 -6,0 -11,0 -16,1l-4 27c0,2 0,3 0,7l0 0z"/>
  <path class="fil1" d="M1149 352c-9,-5 -15,-11 -19,-19 -5,-9 -7,-19 -7,-31 0,-16 3,-31 9,-43 6,-14 15,-23 26,-31 12,-7 24,-10 39,-10 11,0 21,2 30,6 8,4 15,12 19,20 5,8 7,19 7,30 0,17 -3,31 -9,44 -7,14 -16,23 -27,30 -11,7 -24,12 -39,12 -11,0 -21,-2 -29,-8l0 0zm61 -27l0 0c7,-11 11,-27 11,-48 0,-12 -3,-22 -9,-29 -5,-7 -11,-11 -20,-11 -8,0 -14,3 -20,8 -5,4 -10,12 -13,22 -3,9 -5,21 -5,34 0,13 3,23 8,29 5,8 12,12 20,12 12,0 21,-6 28,-17l0 0z"/>
  <path class="fil1" d="M1297 327c-1,3 -1,6 -1,8 0,4 1,6 2,7 2,1 6,2 11,2l0 1 -3 13c-2,0 -7,0 -13,0 -7,0 -12,0 -17,0 -5,0 -10,0 -16,0 -5,0 -9,0 -10,1l3 -15c6,0 11,-2 13,-4 2,-2 4,-7 4,-13l10 -83c0,-1 0,-3 0,-4 0,-2 0,-4 -1,-5 -1,-1 -2,-1 -4,-1 -1,0 -3,0 -4,0 -1,0 -2,0 -3,0l-1 -3 4 -12c1,0 5,0 10,1 5,0 10,0 15,0 3,0 8,0 15,0 7,-1 11,-1 13,-1 15,0 26,3 34,8 10,5 14,14 14,23 0,11 -3,19 -8,26 -6,9 -14,15 -24,20l14 30c3,8 6,12 10,15 3,3 7,4 11,4l1 2 -3 11 -24 3c-9,0 -16,-8 -20,-20l-13 -39 -16 0 -3 25zm38 -50l0 0c5,-5 8,-12 8,-22 0,-13 -10,-19 -29,-19 -1,0 -3,0 -3,1 -1,0 -1,2 -2,3 -3,15 -5,30 -7,45l19 2c5,-2 9,-6 14,-10l0 0z"/>
  <path class="fil0" d="M1431 327c0,3 -1,6 -1,8 0,4 1,6 3,7 3,1 6,2 11,2l1 1 -4 13c-2,0 -7,0 -13,0 -6,0 -12,0 -18,0 -4,0 -9,0 -15,0 -5,0 -8,0 -11,1l5 -15c5,0 9,-2 12,-4 2,-2 3,-7 4,-13l11 -83c0,-1 0,-3 0,-4 0,-2 -1,-4 -1,-5 -1,-1 -3,-1 -5,-1 -2,0 -3,0 -5,0 -1,0 -2,0 -2,0l-1 -3 3 -12c2,0 5,0 11,1 5,0 10,0 15,0 3,0 9,0 15,0 6,-1 11,-1 13,-1 15,0 27,3 35,8 8,5 12,14 12,23 0,11 -2,19 -7,26 -6,9 -13,15 -24,20l14 30c3,8 6,12 9,15 4,3 7,4 12,4l1 2 -3 11 -25 3c-8,0 -15,-8 -19,-20l-13 -39 -17 0 -3 25 0 0zm39 -50l0 0c5,-5 7,-12 7,-22 0,-13 -9,-19 -28,-19 -2,0 -2,0 -3,1 0,0 -1,2 -1,3 -3,15 -5,30 -7,45l18 2c5,-2 10,-6 14,-10z"/>
  <path class="fil0" d="M1553 315c0,8 2,14 7,20 3,4 8,6 16,6 17,0 26,-9 28,-29 2,-11 4,-23 5,-38 2,-13 3,-24 4,-29 0,-2 0,-3 0,-5 0,-3 -1,-4 -1,-5 -1,-1 -2,-1 -4,-1 -3,0 -4,0 -5,0 -2,0 -3,0 -3,0l0 -2 3 -13c2,0 6,0 10,1 5,0 9,0 14,0 5,0 10,0 15,-1 5,0 8,0 9,0l-2 13c-5,2 -9,3 -10,4 -2,1 -3,4 -3,7l-9 67c-2,16 -8,29 -17,37 -11,8 -24,13 -41,13 -15,0 -25,-3 -32,-10 -8,-6 -12,-15 -12,-28 0,-3 1,-6 1,-9l9 -68c0,-3 0,-5 0,-6 0,-2 0,-3 -1,-4 -2,-1 -3,-1 -5,-1 -1,0 -3,0 -4,0 -1,0 -2,0 -2,0l-1 -2 4 -13c2,0 5,1 11,1 6,0 11,0 17,0 5,0 9,0 15,-1 5,0 8,0 10,0l-3 13c-4,2 -7,3 -9,4 -2,2 -3,4 -3,8l-10 62c-1,3 -1,6 -1,9z"/>
  <path class="fil0" d="M1061 175c-26,0 -53,0 -79,0 -31,0 -63,-1 -94,-1 -33,0 -67,0 -101,0 -33,0 -68,-1 -101,-1 -31,0 -64,0 -95,0 -27,0 -54,-1 -81,-1 -28,0 -55,0 -84,0 -4,0 -14,-1 -20,1 -3,0 -7,2 -10,3 -3,1 -6,3 -9,5 -3,2 -5,6 -9,9 -4,6 -8,13 -11,21 -4,6 -7,13 -10,20 -4,7 -7,14 -10,21l-5 11c-1,3 -3,6 -5,9 -8,13 -20,21 -34,24 -4,1 -7,1 -10,2l-12 -1 -22 0 -46 0 -93 0 -46 -1c-7,0 -15,0 -22,0 -8,-1 -16,-1 -22,-3 -4,0 -7,-1 -9,-3 -3,-1 -5,-3 -6,-5 -4,-6 -4,-13 -4,-20 0,-8 0,-16 0,-23l0 -6 0 -6c0,-4 0,-7 2,-10 1,-7 3,-15 6,-21 2,-6 6,-12 11,-19l14 -17 4 -6c0,-1 1,-2 3,-3 2,-2 4,-4 7,-6 13,-7 27,-12 42,-16 15,-3 29,-6 45,-7 3,-1 7,-1 10,-1 5,-1 10,-2 13,-3 8,-3 15,-7 22,-14l31 -33 7 -9c3,-2 6,-6 9,-8 5,-5 10,-10 16,-13 7,-4 14,-8 20,-10 7,-2 15,-3 22,-4 30,-4 60,-6 92,-6 30,-1 60,0 90,5 15,2 31,5 45,7 16,3 32,5 46,6 31,2 62,2 93,1 -31,-1 -62,-2 -92,-5 -15,-2 -30,-4 -46,-6 -14,-3 -30,-6 -44,-9 -31,-5 -62,-7 -93,-7 -31,0 -62,1 -92,5 -4,0 -7,1 -11,2 -5,0 -9,1 -12,2 -8,3 -16,6 -22,10 -7,5 -13,9 -20,15 -3,2 -5,5 -8,8l-7 9 -33 33c-4,5 -10,8 -16,11 -3,1 -7,2 -10,2 -4,1 -8,1 -12,1 -15,2 -30,4 -46,8 -7,1 -15,3 -22,6 -8,3 -16,6 -22,11 -4,2 -7,4 -10,7 -1,2 -3,3 -4,5l-4 4 -14 19c-4,6 -10,13 -13,20 -4,8 -6,16 -7,24 0,4 -1,8 -1,12l0 6 0 6c0,7 0,14 0,23 0,4 0,8 1,12 0,4 1,9 4,13 2,4 6,7 10,10 4,2 8,3 12,4 8,1 17,2 24,2 7,2 16,2 23,2l46 0 93 -2 46 0 22 0 12 0c4,0 8,-1 12,-2 8,-2 15,-5 22,-10 7,-4 13,-10 17,-18 2,-3 3,-7 5,-10l4 -11c4,-7 7,-14 10,-21 3,-7 6,-14 9,-20 4,-8 7,-14 12,-20 4,-6 9,-11 16,-13 4,-2 17,-2 26,-2 9,0 16,0 24,0 19,0 39,0 58,0 28,0 56,0 85,0 34,-1 67,-1 100,-1 36,0 71,0 108,0 34,-1 69,-1 105,-1 32,0 64,0 96,-1 26,0 52,0 78,0 18,0 1,-1 -19,-1l0 0z"/>
 </g>
</svg>
